<?xml version="1.0" encoding="utf-8"?>
<!-- Generator: Adobe Illustrator 26.0.2, SVG Export Plug-In . SVG Version: 6.00 Build 0)  -->
<svg version="1.1" id="Layer_1" xmlns="http://www.w3.org/2000/svg" xmlns:xlink="http://www.w3.org/1999/xlink" x="0px" y="0px"
	 viewBox="0 0 200 200" style="enable-background:new 0 0 200 200;" xml:space="preserve">
<style type="text/css">
	.st0{stroke:#000000;stroke-miterlimit:10;}
	.st1{fill:none;stroke:#FFFFFF;stroke-width:1.25;}
	.st2{fill:none;stroke:#FFFFFF;stroke-width:1.25;stroke-linecap:round;}
	.st3{fill-rule:evenodd;clip-rule:evenodd;fill:#FFFFFF;}
</style>
<rect class="st0" width="200" height="200"/>
<g transform="translate(10 8)">
	<circle class="st1" cx="176" cy="12" r="4"/>
	<path class="st2" d="M20.5,0.5l23,11 M14.5,95.5l-3.8,10.4 M27,131.4l5.9,2.2l-3.5,5.9l6.1,2.4l-3.9,5.8 M160.3,183.1l0.7-9.3
		l10.3,0.1l0.4-9.2l9.3,0.3 M0.5,48.5c0,0,6.1,6.4,6.8,14.8c0.7,8.4-2.5,14.8-2.5,14.8 M124.6,90c0,0-7.4,0-13.7,6.2
		c-6.2,6.2-4.8,12-4.8,12 M108.3,176.8c0,0-4-9-18.1-9S72,173.5,72,173.5"/>
	<path class="st1" d="M85.7,36.1l5.2-9.5h11.1l5.4,9.5l-5.4,9.2H91L85.7,36.1z M149.6,51.6h10.8v10.8h-10.8V51.6z"/>
	<circle class="st3" cx="71.5" cy="7.5" r="1.5"/>
	<circle class="st3" cx="170.5" cy="95.5" r="1.5"/>
	<circle class="st3" cx="81.5" cy="134.5" r="1.5"/>
	<circle class="st3" cx="13.5" cy="23.5" r="1.5"/>
	<path class="st3" d="M93,71h3v3h-3V71z M126,155h3v3h-3V155z M41,173h3v3h-3V173z"/>
	<path class="st1" d="M39.4,51.1l5.8-4.5l6.5,4.2l-2.3,7.4h-7.8L39.4,51.1z M130.2,4L144,9.1l-10.1,7C133.9,16.1,130.2,4,130.2,4z
		 M47.2,99l14.8,5.4L51.2,112L47.2,99L47.2,99z M5.2,161.5l11.3,20.9L2.3,180C2.3,180,5.2,161.5,5.2,161.5z"/>
	<path class="st2" d="M149.1,127.5c0,0-0.5,2.2,1,3.4c1.6,1.2,8.6-1.9,4-7.8c-2.4-2.5-6.5-3.2-9.3,0c-5.2,5.9,0,17.5,11.6,13.7
		c12.5-6.3,5.6-21.7-5.1-22.7c-6.6-0.6-14,1.8-16.2,10.3c-1.7,6.9,1.6,17.4,12.4,20.5c10.9,3.1,19.3-4.3,19.3-4.3"/>
</g>
</svg>
